# AST/ASF file generated using VICON BodyLanguage
# -----------------------------------------------
:version 1.10
:name VICON
:units
  mass 1.0
  length 0.45
  angle deg
:documentation
   .ast/.asf automatically generated from VICON data using
   VICON BodyBuilder and BodyLanguage model FoxedUp or BRILLIANT.MOD
:root
   order TX TY TZ RX RY RZ
   axis XYZ
   position 0 0 0  
   orientation 0 0 0 
:bonedata
  begin
     id 1 
     name lhipjoint
     direction 0.692814 -0.645514 0.321437 
     length 2.38754 
     axis 0 0 0  XYZ
  end
  begin
     id 2 
     name lfemur
     direction 0.34202 -0.939693 0  
     length 6.41921  
     axis 0 0 20  XYZ
    dof rx ry rz
    limits (-160.0 20.0)
           (-70.0 70.0)
           (-60.0 70.0)
  end
  begin
     id 3 
     name ltibia
     direction 0.34202 -0.939693 0   
     length 6.98247   
     axis 0 0 20   XYZ
    dof rx
    limits (-10.0 170.0)
  end
  begin
     id 4 
     name lfoot
     direction 0.0947186 -0.260237 0.960888   
     length 1.83034   
     axis -90 7.62852e-016 20   XYZ
    dof rx rz
    limits (-45.0 90.0)
           (-70.0 20.0)
  end
  begin
     id 5 
     name ltoes
     direction 1.53538e-011 -4.21952e-011 1   
     length 0.920499   
     axis -90 7.62852e-016 20   XYZ
    dof rx
    limits (-90.0 20.0)
  end
  begin
     id 6 
     name rhipjoint
     direction -0.631686 -0.693949 0.345555   
     length 2.2209  
     axis 0 0 0  XYZ 
  end
  begin
     id 7 
     name rfemur
     direction -0.34202 -0.939693 0   
     length 6.49542   
     axis 0 0 -20   XYZ
    dof rx ry rz
    limits (-160.0 20.0)
           (-70.0 70.0)
           (-70.0 60.0)
  end
  begin
     id 8 
     name rtibia
     direction -0.34202 -0.939693 0   
     length 7.21712   
     axis 0 0 -20   XYZ
    dof rx
    limits (-10.0 170.0)
 end
 begin
     id 9 
     name rfoot
     direction -0.0825378 -0.226771 0.970444   
     length 1.89724  
     axis -90 -7.62852e-016 -20   XYZ
    dof rx rz
    limits (-45.0 90.0)
           (-20.0 70.0)
  end
  begin
     id 10 
     name rtoes
     direction -1.53515e-011 -4.22016e-011 1   
     length 0.955868   
     axis -90 -7.62852e-016 -20   XYZ
    dof rx
    limits (-90.0 20.0)
  end
  begin
     id 11 
     name lowerback
     direction -0.0104711 0.984802 -0.173368   
     length 1.84931   
     axis 0 0 0   XYZ
    dof rx ry rz
    limits (-20.0 45.0)
           (-30.0 30.0)
           (-30.0 30.0)
  end
  begin
     id 12 
     name upperback
     direction -0.00286433 0.999996 -0.000382853   
     length 1.85768   
     axis 0 0 0   XYZ
    dof rx ry rz
    limits (-20.0 45.0)
           (-30.0 30.0)
           (-30.0 30.0)
  end
  begin
     id 13 
     name thorax
     direction 0.00167534 0.996793 0.0800069   
     length 1.92   
     axis 0 0 0   XYZ
    dof rx ry rz
    limits (-20.0 45.0)
           (-30.0 30.0)
           (-30.0 30.0)
  end
  begin
     id 14 
     name lowerneck
     direction -0.0672491 0.995415 0.068018   
     length 1.58923   
     axis 0 0 0   XYZ
    dof rx ry rz
    limits (-20.0 45.0)
           (-30.0 30.0)
           (-30.0 30.0)
  end
  begin
     id 15 
     name upperneck
     direction 0.0958019 0.982476 -0.159884   
     length 1.60189   
     axis 0 0 0   XYZ
    dof rx ry rz
    limits (-20.0 45.0)
           (-30.0 30.0)
           (-30.0 30.0)
  end
  begin
     id 16
     name head
     direction 0.032989 0.997338 -0.0650226  
     length 1.61681  
     axis 0 0 0   XYZ
    dof rx ry rz
    limits (-20.0 45.0)
           (-30.0 30.0)
           (-30.0 30.0)
  end
  begin
     id 17 
     name lclavicle
     direction 0.954279 0.298875 -0.00496069  
     length 2.99449  
     axis 0 0 0   XYZ
    dof ry rz
    limits (-20.0 10.0)
           (0.0 20.0)
  end
  begin
     id 18 
     name lhumerus
     direction 1 -4.48985e-011 -4.2057e-027   
     length 4.79185   
     axis 180 -30 -90   XYZ
    dof rx ry rz
    limits (-60.0 90.0)
           (-90.0 90.0)
           (-90.0 90.0)
  end
  begin
     id 19
     name lradius
     direction 1 -4.48945e-011 1.15441e-028   
     length 2.65553   
     axis 180 -30 -90   XYZ
    dof rx
    limits (-10.0 170.0)
  end
  begin
     id 20
     name lwrist
     direction 1 -4.4899e-011 4.8894e-028   
     length 1.32777   
     axis -2.56392e-016 90 90   XYZ
    dof ry
    limits (-180.0 0.0)
 end
  begin
     id 21 
     name lhand
     direction 1 -4.48908e-011 9.7788e-028   
     length 0.743904   
     axis -6.23971e-016 90 90   XYZ
    dof rx rz
    limits (-90.0 90.0)
           (-45.0 45.0)
  end
  begin
     id 22 
     name lfingers
     direction 1 -4.49068e-011 1.95576e-027   
     length 0.599754   
     axis -1.24794e-015 90 90   XYZ
    dof rx
    limits (0.0 90.0)
  end
  begin
     id 23
     name lthumb
     direction 0.707107 -6.34883e-011 0.707107   
     length 0.861131   
     axis -90 45 2.85299e-015   XYZ
    dof rx rz
    limits (-45.0 45.0)
           (-45.0 45.0)
  end
  begin
     id 24 
     name rclavicle
     direction -0.957921 0.286916 0.00811568   
     length 3.06817  
     axis 0 0 0   XYZ 
    dof ry rz
    limits (-10.0 20.0)
           (-20.0 0.0)
  end
  begin
     id 25 
     name rhumerus
     direction -1 -4.48971e-011 -3.07942e-027  
     length 4.77254   
     axis 180 30 90   XYZ
    dof rx ry rz
    limits (-90.0 60.0)
           (-90.0 90.0)
           (-90.0 90.0)
  end
  begin
     id 26 
     name rradius
     direction -1 -4.48957e-011 -9.6815e-028   
     length 2.75995   
     axis 180 30 90   XYZ
    dof rx
    limits (-10.0 170.0)
  end
  begin
     id 27 
     name rwrist
     direction -1 -4.48979e-011 4.8894e-028   
     length 1.37997   
     axis -2.56392e-016 -90 -90   XYZ
    dof ry
    limits (-180.0 0.0)
  end
  begin
     id 28
     name rhand
     direction -1 -4.48906e-011 9.7788e-028   
     length 0.701619   
     axis -6.23971e-016 -90 -90   XYZ
    dof rx rz
    limits (-90.0 90.0)
           (-45.0 45.0)
  end
  begin
     id 29
     name rfingers
     direction -1 -4.49018e-011 1.95576e-027   
     length 0.565663   
     axis -1.24794e-015 -90 -90   XYZ
    dof rx
    limits (0.0 90.0)
  end
  begin
     id 30
     name rthumb
     direction -0.707107 -6.34881e-011 0.707107   
     length 0.812183   
     axis -90 -45 -2.85299e-015   XYZ
    dof rx rz
    limits (-45.0 45.0)
           (-45.0 45.0)
  end
:hierarchy
  begin
    root lhipjoint rhipjoint lowerback
    lhipjoint lfemur
    lfemur ltibia
    ltibia lfoot
    lfoot ltoes
    rhipjoint rfemur
    rfemur rtibia
    rtibia rfoot
    rfoot rtoes
    lowerback upperback
    upperback thorax
    thorax lowerneck lclavicle rclavicle
    lowerneck upperneck
    upperneck head
    lclavicle lhumerus
    lhumerus lradius
    lradius lwrist
    lwrist lhand lthumb
    lhand lfingers
    rclavicle rhumerus
    rhumerus rradius
    rradius rwrist
    rwrist rhand rthumb
    rhand rfingers
  end

#!OML:ASF F:\VICON\USERDATA\INSTALL\rory3\rory3.ASF
:FULLY-SPECIFIED
:DEGREES
128
root -1.38005 15.4824 -0.126989 10.5146 15.999 17.1627
lowerback 10.9373 -2.73993 -9.25282
upperback -6.9443 -6.7403 -11.9084
thorax -14.679 -3.05756 -6.83223
lowerneck -4.11246 -1.40094 -14.85
upperneck 17.6006 -2.38365 12.1821
head 6.26659 -1.23625 6.31055
rclavicle -1.8487e-014 -4.29375e-014
rhumerus -57.2429 -2.35602 -67.7941
rradius 30.183
rwrist 3.34638
rhand -3.92601 12.6574
rfingers 7.12502
rthumb 21.825 -16.1319
lclavicle -1.8487e-014 -4.29375e-014
lhumerus -38.9708 17.4584 48.7394
lradius 20.7636
lwrist 2.78132
lhand -6.38956 10.212
lfingers 7.12502
lthumb 19.4578 39.2584
rfemur -24.4293 13.4505 7.08853
rtibia 51.5444
rfoot -28.9098 -32.8154
rtoes 5.61221
lfemur -12.2952 -3.40362 -27.4649
ltibia 13.624
lfoot -1.42739 -6.97331
ltoes 0.832455
129
root -1.37458 15.4984 -0.139297 11.0413 16.1699 17.0336
lowerback 11.0035 -2.649 -9.20586
upperback -7.12494 -6.6314 -11.7589
thorax -14.9149 -2.99502 -6.71945
lowerneck -4.34173 -1.53846 -14.7382
upperneck 17.2116 -2.54481 12.2662
head 6.20737 -1.29007 6.29806
rclavicle 8.74653e-015 -1.06549e-013
rhumerus -57.4336 -2.71999 -67.3063
rradius 30.1829
rwrist 3.46363
rhand -3.88765 12.6216
rfingers 7.12502
rthumb 21.8618 -16.1634
lclavicle 8.74653e-015 -1.06549e-013
lhumerus -39.1972 17.8527 48.5809
lradius 20.7939
lwrist 2.8666
lhand -6.44254 9.9332
lfingers 7.12502
lthumb 19.4069 38.9848
rfemur -24.9073 13.3903 7.04514
rtibia 51.2919
rfoot -28.5392 -32.9508
rtoes 5.00861
lfemur -12.5889 -3.60805 -27.3101
ltibia 12.9369
lfoot -0.985173 -6.80518
ltoes 1.23065
130
root -1.37251 15.5175 -0.154057 11.5809 16.3064 16.8444
lowerback 11.1776 -2.56886 -9.14494
upperback -7.37549 -6.56157 -11.5631
thorax -15.3051 -2.94671 -6.5547
lowerneck -4.60335 -1.65562 -14.6678
upperneck 16.8772 -2.67217 12.3507
head 6.16699 -1.33024 6.2967
rclavicle 2.34566e-014 -6.52014e-014
rhumerus -57.6215 -2.88386 -66.9274
rradius 30.1443
rwrist 3.47556
rhand -3.98747 12.6915
rfingers 7.12502
rthumb 21.766 -16.1047
lclavicle 2.34566e-014 -6.52014e-014
lhumerus -39.5782 18.0265 48.4759
lradius 20.8553
lwrist 3.24498
lhand -6.4298 9.26053
lfingers 7.12502
lthumb 19.4191 38.3108
rfemur -25.4542 13.3529 7.05748
rtibia 51.0039
rfoot -27.513 -33.3263
rtoes 3.20548
lfemur -12.954 -3.55533 -27.1088
ltibia 12.2798
lfoot -0.461765 -6.80044
ltoes 1.23514
131
root -1.37122 15.5372 -0.167915 12.1189 16.3853 16.6912
lowerback 11.3466 -2.50384 -9.17858
upperback -7.6301 -6.52338 -11.3375
thorax -15.6871 -2.89991 -6.29449
lowerneck -4.91253 -1.73954 -14.626
upperneck 16.5838 -2.74195 12.408
head 6.14004 -1.34542 6.296
rclavicle 4.03533e-014 -1.43125e-014
rhumerus -57.7574 -2.87376 -66.6416
rradius 30.1743
rwrist 3.36328
rhand -4.08982 12.5049
rfingers 7.12502
rthumb 21.6677 -16.3026
lclavicle 4.03533e-014 -1.43125e-014
lhumerus -40.0308 18.024 48.5061
lradius 21.0311
lwrist 3.87663
lhand -6.60215 9.18353
lfingers 7.12502
lthumb 19.2534 38.2505
rfemur -26.0162 13.3183 7.01957
rtibia 50.6889
rfoot -27.8746 -33.1861
rtoes 4.7365
lfemur -13.319 -3.54992 -26.9506
ltibia 11.6352
lfoot -0.0464511 -6.66526
ltoes 1.06106
132
root -1.3699 15.5582 -0.183097 12.6024 16.4255 16.4726
lowerback 11.558 -2.44917 -9.15879
upperback -7.86699 -6.49275 -11.0983
thorax -16.0806 -2.86063 -6.04404
lowerneck -5.1702 -1.8065 -14.5255
upperneck 16.1883 -2.79112 12.4373
head 6.06818 -1.34987 6.27419
rclavicle 3.24019e-014 -3.81667e-014
rhumerus -57.8556 -2.91813 -66.3127
rradius 30.2526
rwrist 3.37774
rhand -4.11831 12.1687
rfingers 7.12502
rthumb 21.6403 -16.642
lclavicle 3.24019e-014 -3.81667e-014
lhumerus -40.5227 17.9415 48.5731
lradius 21.352
lwrist 4.53015
lhand -6.78093 9.64407
lfingers 7.12502
lthumb 19.0815 38.728
rfemur -26.5211 13.2505 7.0576
rtibia 50.3467
rfoot -27.4651 -33.1843
rtoes 4.67941
lfemur -13.6618 -3.79139 -26.6975
ltibia 11.0366
lfoot 0.131766 -6.28724
ltoes 0.84837
133
root -1.36899 15.5804 -0.199914 13.103 16.4832 16.148
lowerback 11.7347 -2.37235 -8.9934
upperback -8.09421 -6.39675 -10.8663
thorax -16.4538 -2.80885 -5.89975
lowerneck -5.49519 -1.93743 -14.4359
upperneck 15.838 -2.92814 12.5076
head 6.03577 -1.39373 6.26343
rclavicle 1.59028e-014 4.6118e-014
rhumerus -57.9736 -3.08041 -65.9422
rradius 30.3294
rwrist 3.36563
rhand -4.08634 12.0117
rfingers 7.12502
rthumb 21.671 -16.7955
lclavicle 1.59028e-014 4.6118e-014
lhumerus -40.8436 18.0501 48.5415
lradius 21.457
lwrist 4.74328
lhand -6.77184 9.72437
lfingers 7.12502
lthumb 19.0902 38.8075
rfemur -27.0436 13.1711 7.19549
rtibia 49.9671
rfoot -27.3156 -33.0046
rtoes 5.24567
lfemur -14.0757 -4.15067 -26.3058
ltibia 10.479
lfoot 0.188582 -5.81615
ltoes 0.573573
134
root -1.36812 15.603 -0.215904 13.6586 16.4948 15.7778
lowerback 11.801 -2.26789 -8.76638
upperback -8.31084 -6.23038 -10.6567
thorax -16.749 -2.73598 -5.83568
lowerneck -5.83283 -2.08674 -14.3012
upperneck 15.47 -3.08929 12.5537
head 6.00283 -1.44821 6.23426
rclavicle -2.26615e-014 -1.17681e-013
rhumerus -58.0022 -3.34198 -65.6004
rradius 30.2782
rwrist 3.25007
rhand -4.09576 12.2086
rfingers 7.12502
rthumb 21.662 -16.5996
lclavicle -2.26615e-014 -1.17681e-013
lhumerus -41.0112 18.0688 48.5598
lradius 21.4483
lwrist 4.93011
lhand -6.62432 9.71649
lfingers 7.12502
lthumb 19.2321 38.7855
rfemur -27.6767 13.0872 7.34285
rtibia 49.5629
rfoot -26.9166 -32.9148
rtoes 5.34538
lfemur -14.5864 -4.69401 -25.8168
ltibia 9.92426
lfoot 0.203278 -5.0718
ltoes -0.0638444
135
root -1.36777 15.6282 -0.231595 14.2016 16.4711 15.3603
lowerback 11.8184 -2.13926 -8.50766
upperback -8.46175 -6.00045 -10.4267
thorax -16.9237 -2.63757 -5.77593
lowerneck -6.25131 -2.25927 -14.2892
upperneck 15.0673 -3.26993 12.6963
head 5.9794 -1.5104 6.25652
rclavicle -6.67916e-014 -7.95139e-015
rhumerus -57.9057 -3.64976 -65.262
rradius 30.2745
rwrist 3.01041
rhand -4.23101 12.2715
rfingers 7.12502
rthumb 21.5321 -16.5516
lclavicle -6.67916e-014 -7.95139e-015
lhumerus -41.0851 18.052 48.7553
lradius 21.4831
lwrist 5.10595
lhand -6.7643 10.0307
lfingers 7.12502
lthumb 19.0975 39.1131
rfemur -28.3332 12.9787 7.53145
rtibia 49.137
rfoot -26.7657 -32.8465
rtoes 5.80123
lfemur -15.0541 -5.18051 -25.2743
ltibia 9.24469
lfoot 0.333378 -4.33221
ltoes -0.888193
136
root -1.36997 15.6549 -0.247718 14.7089 16.4734 14.9132
lowerback 11.8925 -2.03188 -8.26018
upperback -8.57654 -5.80534 -10.2028
thorax -17.0922 -2.55464 -5.70525
lowerneck -6.81264 -2.46093 -14.2079
upperneck 14.701 -3.4878 12.8683
head 5.9974 -1.58089 6.2742
rclavicle 6.67916e-014 -6.36111e-014
rhumerus -57.7706 -3.88077 -65.0633
rradius 30.3278
rwrist 2.75334
rhand -4.29132 12.2152
rfingers 7.12502
rthumb 21.4742 -16.6146
lclavicle 6.67916e-014 -6.36111e-014
lhumerus -41.1266 18.1857 48.8359
lradius 21.4815
lwrist 4.99855
lhand -6.8439 10.3132
lfingers 7.12502
lthumb 19.0209 39.4031
rfemur -28.9457 12.8812 7.76724
rtibia 48.6905
rfoot -26.7321 -32.6915
rtoes 6.71239
lfemur -15.4624 -5.67055 -24.6867
ltibia 8.59336
lfoot 0.390651 -3.58812
ltoes -1.12153
